<mxfile host="65bd71144e">
    <diagram id="h3jV6mo7mJsu2dwFC9Nj" name="第 1 页">
        <mxGraphModel dx="1652" dy="1337" grid="1" gridSize="10" guides="1" tooltips="1" connect="1" arrows="1" fold="1" page="1" pageScale="1" pageWidth="827" pageHeight="1169" math="0" shadow="0">
            <root>
                <mxCell id="0"/>
                <mxCell id="1" parent="0"/>
                <mxCell id="2" value="" style="endArrow=none;html=1;strokeWidth=11;strokeColor=#3399FF;entryX=0;entryY=0.5;entryDx=0;entryDy=0;" edge="1" parent="1" target="3">
                    <mxGeometry width="50" height="50" relative="1" as="geometry">
                        <mxPoint x="310" y="409" as="sourcePoint"/>
                        <mxPoint x="500" y="410" as="targetPoint"/>
                    </mxGeometry>
                </mxCell>
                <mxCell id="5" style="edgeStyle=none;html=1;exitX=1;exitY=0.5;exitDx=0;exitDy=0;strokeColor=#3399FF;strokeWidth=11;entryX=0;entryY=0.5;entryDx=0;entryDy=0;" edge="1" parent="1" source="3" target="15">
                    <mxGeometry relative="1" as="geometry">
                        <mxPoint x="760" y="410" as="targetPoint"/>
                    </mxGeometry>
                </mxCell>
                <mxCell id="3" value="K1" style="ellipse;whiteSpace=wrap;html=1;aspect=fixed;fillColor=#3399FF;strokeColor=none;fontSize=38;fontColor=#FFFFFF;" vertex="1" parent="1">
                    <mxGeometry x="510" y="370" width="80" height="80" as="geometry"/>
                </mxCell>
                <mxCell id="4" value="Key points&amp;nbsp;" style="text;html=1;strokeColor=none;fillColor=none;align=center;verticalAlign=middle;whiteSpace=wrap;rounded=0;" vertex="1" parent="1">
                    <mxGeometry x="20" y="70" width="80" height="30" as="geometry"/>
                </mxCell>
                <mxCell id="8" value="" style="ellipse;whiteSpace=wrap;html=1;aspect=fixed;fillColor=#3399FF;strokeColor=none;" vertex="1" parent="1">
                    <mxGeometry x="40" y="20" width="40" height="40" as="geometry"/>
                </mxCell>
                <mxCell id="9" value="C1" style="rhombus;whiteSpace=wrap;html=1;fontSize=38;fontColor=#FFFFFF;fillColor=#B3B3B3;strokeColor=none;" vertex="1" parent="1">
                    <mxGeometry x="510" y="160" width="80" height="80" as="geometry"/>
                </mxCell>
                <mxCell id="12" style="edgeStyle=none;html=1;entryX=1;entryY=0;entryDx=0;entryDy=0;fontSize=38;fontColor=#FFFFFF;strokeColor=#CCCCCC;strokeWidth=3;endArrow=none;endFill=0;" edge="1" parent="1" source="11" target="3">
                    <mxGeometry relative="1" as="geometry"/>
                </mxCell>
                <mxCell id="11" value="" style="shape=partialRectangle;whiteSpace=wrap;html=1;bottom=1;right=1;left=1;top=0;fillColor=none;routingCenterX=-0.5;fontSize=38;fontColor=#FFFFFF;strokeColor=#CCCCCC;strokeWidth=3;" vertex="1" parent="1">
                    <mxGeometry x="550" y="240" width="200" height="30" as="geometry"/>
                </mxCell>
                <mxCell id="13" value="C2" style="rhombus;whiteSpace=wrap;html=1;fontSize=38;fontColor=#FFFFFF;fillColor=#B3B3B3;strokeColor=none;" vertex="1" parent="1">
                    <mxGeometry x="610" y="160" width="80" height="80" as="geometry"/>
                </mxCell>
                <mxCell id="14" value="C..." style="rhombus;whiteSpace=wrap;html=1;fontSize=38;fontColor=#FFFFFF;fillColor=#B3B3B3;strokeColor=none;" vertex="1" parent="1">
                    <mxGeometry x="700" y="160" width="90" height="90" as="geometry"/>
                </mxCell>
                <mxCell id="15" value="K2" style="ellipse;whiteSpace=wrap;html=1;aspect=fixed;fillColor=#3399FF;strokeColor=none;fontSize=38;fontColor=#FFFFFF;" vertex="1" parent="1">
                    <mxGeometry x="820" y="370" width="80" height="80" as="geometry"/>
                </mxCell>
                <mxCell id="16" style="edgeStyle=none;html=1;exitX=1;exitY=0.5;exitDx=0;exitDy=0;strokeColor=#B3B3B3;strokeWidth=11;entryX=0;entryY=0.5;entryDx=0;entryDy=0;dashed=1;dashPattern=1 1;" edge="1" parent="1" target="18">
                    <mxGeometry relative="1" as="geometry">
                        <mxPoint x="1070" y="409.5" as="targetPoint"/>
                        <mxPoint x="900" y="409.5" as="sourcePoint"/>
                    </mxGeometry>
                </mxCell>
                <mxCell id="18" value="Kn" style="ellipse;whiteSpace=wrap;html=1;aspect=fixed;fillColor=#B3B3B3;strokeColor=none;fontSize=38;fontColor=#FFFFFF;" vertex="1" parent="1">
                    <mxGeometry x="1120" y="370" width="80" height="80" as="geometry"/>
                </mxCell>
                <mxCell id="19" value="C3" style="rhombus;whiteSpace=wrap;html=1;fontSize=38;fontColor=#FFFFFF;fillColor=#3399FF;strokeColor=none;" vertex="1" parent="1">
                    <mxGeometry x="820" y="160" width="80" height="80" as="geometry"/>
                </mxCell>
                <mxCell id="20" style="edgeStyle=none;html=1;entryX=0.5;entryY=1;entryDx=0;entryDy=0;fontSize=38;fontColor=#FFFFFF;strokeColor=#3399FF;strokeWidth=3;endArrow=none;endFill=0;exitX=1;exitY=0;exitDx=0;exitDy=0;" edge="1" parent="1" source="15" target="21">
                    <mxGeometry relative="1" as="geometry">
                        <mxPoint x="888.2842712474619" y="381.7157287525381" as="targetPoint"/>
                        <mxPoint x="960" y="370" as="sourcePoint"/>
                    </mxGeometry>
                </mxCell>
                <mxCell id="21" value="" style="shape=partialRectangle;whiteSpace=wrap;html=1;bottom=1;right=1;left=1;top=0;fillColor=none;routingCenterX=-0.5;fontSize=38;fontColor=#FFFFFF;strokeColor=#3399FF;strokeWidth=3;" vertex="1" parent="1">
                    <mxGeometry x="860" y="240" width="200" height="30" as="geometry"/>
                </mxCell>
                <mxCell id="22" value="C4" style="rhombus;whiteSpace=wrap;html=1;fontSize=38;fontColor=#FFFFFF;fillColor=#3399FF;strokeColor=none;" vertex="1" parent="1">
                    <mxGeometry x="920" y="160" width="80" height="80" as="geometry"/>
                </mxCell>
                <mxCell id="23" value="C..." style="rhombus;whiteSpace=wrap;html=1;fontSize=38;fontColor=#FFFFFF;fillColor=#3399FF;strokeColor=none;" vertex="1" parent="1">
                    <mxGeometry x="1020" y="160" width="80" height="80" as="geometry"/>
                </mxCell>
                <mxCell id="24" value="C5" style="rhombus;whiteSpace=wrap;html=1;fontSize=38;fontColor=#FFFFFF;fillColor=#B3B3B3;strokeColor=none;" vertex="1" parent="1">
                    <mxGeometry x="1120" y="160" width="80" height="80" as="geometry"/>
                </mxCell>
                <mxCell id="25" style="edgeStyle=none;html=1;entryX=1;entryY=0;entryDx=0;entryDy=0;fontSize=38;fontColor=#FFFFFF;strokeColor=#CCCCCC;strokeWidth=3;endArrow=none;endFill=0;" edge="1" parent="1" source="26">
                    <mxGeometry relative="1" as="geometry">
                        <mxPoint x="1188.284271247462" y="381.7157287525381" as="targetPoint"/>
                    </mxGeometry>
                </mxCell>
                <mxCell id="26" value="" style="shape=partialRectangle;whiteSpace=wrap;html=1;bottom=1;right=1;left=1;top=0;fillColor=none;routingCenterX=-0.5;fontSize=38;fontColor=#FFFFFF;strokeColor=#CCCCCC;strokeWidth=3;" vertex="1" parent="1">
                    <mxGeometry x="1160" y="240" width="200" height="30" as="geometry"/>
                </mxCell>
                <mxCell id="27" value="C6" style="rhombus;whiteSpace=wrap;html=1;fontSize=38;fontColor=#FFFFFF;fillColor=#B3B3B3;strokeColor=none;" vertex="1" parent="1">
                    <mxGeometry x="1220" y="160" width="80" height="80" as="geometry"/>
                </mxCell>
                <mxCell id="28" value="C..." style="rhombus;whiteSpace=wrap;html=1;fontSize=38;fontColor=#FFFFFF;fillColor=#B3B3B3;strokeColor=none;" vertex="1" parent="1">
                    <mxGeometry x="1320" y="160" width="80" height="80" as="geometry"/>
                </mxCell>
                <mxCell id="29" style="edgeStyle=none;html=1;exitX=0.5;exitY=1;exitDx=0;exitDy=0;entryX=0.5;entryY=0;entryDx=0;entryDy=0;fontSize=38;fontColor=#FFFFFF;endArrow=classic;endFill=1;strokeColor=#3399FF;strokeWidth=3;" edge="1" parent="1" source="21" target="21">
                    <mxGeometry relative="1" as="geometry"/>
                </mxCell>
                <mxCell id="31" value="" style="rhombus;whiteSpace=wrap;html=1;fontSize=38;fontColor=#FFFFFF;fillColor=#3399FF;strokeColor=none;" vertex="1" parent="1">
                    <mxGeometry x="145" y="15" width="50" height="50" as="geometry"/>
                </mxCell>
                <mxCell id="32" value="Component" style="text;html=1;strokeColor=none;fillColor=none;align=center;verticalAlign=middle;whiteSpace=wrap;rounded=0;" vertex="1" parent="1">
                    <mxGeometry x="130" y="70" width="80" height="30" as="geometry"/>
                </mxCell>
                <mxCell id="33" value="process" style="shape=ext;double=1;rounded=1;whiteSpace=wrap;html=1;fontSize=38;fontColor=#FFFFFF;strokeColor=#3399FF;strokeWidth=3;fillColor=#3399FF;" vertex="1" parent="1">
                    <mxGeometry x="80" y="370" width="230" height="80" as="geometry"/>
                </mxCell>
            </root>
        </mxGraphModel>
    </diagram>
</mxfile>